<svg xmlns="http://www.w3.org/2000/svg" width="1000" height="1000" viewBox="0 0 1000 1000">
  <rect width="1000" height="1000" fill="#ff5b1a"/>
  <svg x="185" y="185" width="630" height="630" viewBox="30 30 340 260" preserveAspectRatio="xMidYMid meet">
    <defs>
      <clipPath id="L"><rect x="0"   y="0" width="200" height="320"/></clipPath>
      <clipPath id="R"><rect x="200" y="0" width="200" height="320"/></clipPath>
    </defs>
    <g clip-path="url(#L)">
      <path fill="#fff"
        d="M 64 40 L 336 40 L 336 116 L 252 116 L 252 198 L 360 198 L 360 282 L 40 282 L 40 198 L 148 198 L 148 116 L 64 116 Z"/>
      <rect x="184" y="60" width="18" height="18" fill="#000"/>
      <circle cx="232" cy="69" r="6" fill="#000"/>
    </g>
    <g clip-path="url(#R)">
      <path fill="#000" stroke="#fff" stroke-width="3" stroke-linejoin="miter"
        d="M 64 40 L 336 40 L 336 116 L 252 116 L 252 198 L 360 198 L 360 282 L 40 282 L 40 198 L 148 198 L 148 116 L 64 116 Z"/>
    </g>
    <line x1="200" y1="40"  x2="200" y2="116" stroke="#fff" stroke-width="1.5" opacity="0.6"/>
    <line x1="200" y1="116" x2="200" y2="198" stroke="#fff" stroke-width="1.5" opacity="0.4"/>
    <line x1="200" y1="198" x2="200" y2="282" stroke="#fff" stroke-width="1.5" opacity="0.6"/>
  </svg>
</svg>
